<svg width="28" height="34" viewBox="0 0 28 34" fill="none" xmlns="http://www.w3.org/2000/svg">
<path d="M27.6576 0.661562L23.1674 0.00696482C23.0345 -0.019219 22.9017 0.0331455 22.8485 0.0855133L20.9355 2.5468C20.8027 2.7039 20.7761 2.91337 20.8292 3.09666C20.8824 3.27995 20.723 3.43705 20.537 3.41087L18.9694 3.07047C18.7302 3.01811 18.4645 3.09666 18.3051 3.30614L12.0878 11.1613C11.9816 11.3184 11.769 11.3708 11.583 11.2922L9.21832 10.2449C9.00576 10.1401 8.76664 10.1663 8.58065 10.2972L7.38502 11.1089C7.19903 11.2398 6.93333 11.266 6.72077 11.1613L6.13624 10.8733C5.76427 10.69 5.31259 10.8995 5.20631 11.2922L4.78119 13.1513C4.67491 13.5964 4.8609 14.0415 5.25945 14.2772L6.16281 14.827L9.0589 16.5814L10.4671 17.4454C10.8656 17.6811 11.3705 17.6287 11.7159 17.3407L14.0806 15.2984C14.2665 15.1412 14.5588 15.0889 14.7714 15.2198L15.4887 15.5864C15.7279 15.7173 16.0201 15.6649 16.2061 15.4816L17.4018 14.3819C17.5877 14.1986 17.88 14.1724 18.0926 14.2772L19.8727 15.0889C20.1384 15.2198 20.4573 15.1412 20.6433 14.9056L21.4669 13.8582L27.7108 5.97689C28.003 5.61031 27.817 5.06045 27.3388 4.95572L25.9572 4.64151C25.6649 4.58914 25.5321 4.22257 25.7446 4.0131L27.8968 1.36852C28.1093 1.05432 27.9765 0.71393 27.6576 0.661562Z" fill="url(#paint0_linear_813_238)"/>
<path d="M7.06562 16.5289C6.93277 16.4504 6.79992 16.5813 6.85306 16.7122L7.5173 18.4403C7.57044 18.5712 7.57044 18.7022 7.54387 18.8331L6.95934 21.0849C6.93277 21.242 6.98591 21.3991 7.09219 21.4777L8.76607 22.7607C8.92549 22.8654 9.13805 22.8654 9.27089 22.7345L11.0245 21.2158C11.1308 21.1373 11.2636 21.0849 11.3699 21.0587L13.3626 20.8492C13.4955 20.8231 13.5486 20.6398 13.4158 20.5612L7.06562 16.5289Z" fill="url(#paint1_linear_813_238)"/>
<path d="M6.48124 22.3418C6.37496 22.2633 6.21555 22.2371 6.0827 22.2895L4.67451 22.9702C4.5948 22.9964 4.54166 23.075 4.48852 23.1535L1.48616 30.4588C1.48616 30.485 1.48616 30.485 1.48616 30.5112C1.51273 30.5374 1.5393 30.5636 1.59243 30.5636L2.28325 30.3017C2.30982 30.3017 2.33638 30.3017 2.36295 30.3017C2.38952 30.3279 2.41609 30.3803 2.38952 30.4065L0.237383 33.8889C0.184244 33.9675 0.290524 34.046 0.343663 33.9675L8.12856 26.2694C8.20827 26.1909 8.23484 26.1123 8.26141 26.0076L8.42083 24.0176C8.42083 23.8867 8.36769 23.7819 8.28798 23.7034L6.48124 22.3418Z" fill="url(#paint2_linear_813_238)"/>
<defs>
<linearGradient id="paint0_linear_813_238" x1="16.3759" y1="0" x2="16.3759" y2="17.5938" gradientUnits="userSpaceOnUse">
<stop stop-color="white"/>
<stop offset="1" stop-color="white" stop-opacity="0.75"/>
</linearGradient>
<linearGradient id="paint1_linear_813_238" x1="10.1669" y1="16.5052" x2="10.1669" y2="22.8363" gradientUnits="userSpaceOnUse">
<stop stop-color="white"/>
<stop offset="1" stop-color="white" stop-opacity="0.75"/>
</linearGradient>
<linearGradient id="paint2_linear_813_238" x1="4.32187" y1="22.2622" x2="4.32187" y2="34" gradientUnits="userSpaceOnUse">
<stop stop-color="white"/>
<stop offset="1" stop-color="white" stop-opacity="0.75"/>
</linearGradient>
</defs>
</svg>